PathFileType	4	(X/Y/Z)	Running2.trc
DataRate	CameraRate	NumFrames	NumMarkers	Units	OrigDataRate	OrigDataStartFrame	OrigNumFrames
100	100	97	2	mm	100	4501	6000
Frame#	Time	mal_lat_left			mal_lat_right		
		X	Y	Z	X	Y	Z	
4501	22.5	523.08447265625	406.691497802734	321.238189697266	1007.85339355469	190.102767944336	87.1128158569336
4502	22.505	528.398864746094	406.125152587891	324.427062988281	998.910522460938	190.89143371582	88.3655090332031
4503	22.51	534.4111328125	405.553588867188	327.330871582031	989.372680664062	191.586837768555	89.5289154052734
4504	22.515	540.885131835938	404.923767089844	329.886016845703	978.593566894531	192.376556396484	90.6315231323242
4505	22.52	547.956970214844	404.279937744141	332.061889648438	967.606079101562	192.975341796875	91.3725738525391
4506	22.525	555.524230957031	403.614288330078	333.767944335938	956.583251953125	193.212387084961	91.713981628418
4507	22.53	563.471435546875	402.982299804688	334.995208740234	945.368225097656	193.264038085938	92.0313415527344
4508	22.535	571.724243164062	402.428436279297	335.917175292969	933.848022460938	193.170028686523	92.3413619995117
4509	22.54	580.317626953125	401.965637207031	336.274963378906	922.048400878906	192.982833862305	92.5782241821289
4510	22.545	589.031372070312	401.495697021484	336.216888427734	910.244873046875	192.976669311523	92.7477493286133
4511	22.55	597.9677734375	401.112274169922	335.695007324219	898.15087890625	193.007171630859	93.0827102661133
4512	22.555	607.0771484375	400.755004882812	334.668151855469	886.025939941406	193.183898925781	93.4773941040039
4513	22.56	616.309448242188	400.450286865234	333.203643798828	873.86572265625	193.317230224609	93.8811492919922
4514	22.565	625.663757324219	400.174865722656	331.199859619141	861.753845214844	193.564300537109	94.1234436035156
4515	22.57	635.065063476562	399.869964599609	328.864532470703	849.474975585938	193.531829833984	94.6586380004883
4516	22.575	644.585144042969	399.637298583984	326.037200927734	837.200012207031	193.384490966797	95.1848220825195
4517	22.58	654.0546875	399.344787597656	322.834320068359	824.957763671875	193.136306762695	95.900520324707
4518	22.585	663.5439453125	398.994171142578	319.172698974609	812.894226074219	192.881301879883	96.6389236450195
4519	22.59	673.044494628906	398.638031005859	315.152984619141	800.917785644531	192.569198608398	97.6157913208008
4520	22.595	682.588989257812	398.232757568359	310.769348144531	789.065734863281	192.18034362793	98.7479400634766
4521	22.6	692.113342285156	397.773132324219	306.043365478516	777.300354003906	191.673599243164	100.118141174316
4522	22.605	701.678405761719	397.222747802734	300.951507568359	765.702575683594	191.100662231445	101.745513916016
4523	22.61	711.340454101562	396.599426269531	295.577606201172	754.246826171875	190.362701416016	103.736862182617
4524	22.615	721.06005859375	395.893493652344	289.928558349609	743.007446289062	189.641998291016	105.967063903809
4525	22.62	730.876098632812	395.041595458984	283.905456542969	731.9873046875	188.741943359375	108.59593963623
4526	22.625	740.821044921875	393.958526611328	277.499755859375	721.313415527344	187.685256958008	111.462661743164
4527	22.63	751.050354003906	392.984252929688	270.986877441406	711.065795898438	186.2373046875	114.670303344727
4528	22.635	761.385192871094	391.848846435547	264.284332275391	700.538940429688	185.412521362305	118.359016418457
4529	22.64	772.101989746094	390.774353027344	257.297882080078	690.845886230469	184.275482177734	121.93822479248
4530	22.645	783.011108398438	389.620666503906	250.209747314453	681.302307128906	183.039306640625	125.834587097168
4531	22.65	794.347778320312	388.264892578125	242.805801391602	672.224304199219	181.775177001953	129.871566772461
4532	22.655	805.949584960938	387.075439453125	235.271408081055	663.482849121094	180.255523681641	134.137847900391
4533	22.66	817.78759765625	385.950836181641	227.671127319336	654.969421386719	179.116500854492	138.488174438477
4534	22.665	830.0234375	384.81494140625	219.9775390625	646.820922851562	177.754486083984	142.953430175781
4535	22.67	842.50244140625	383.829772949219	212.220108032227	639.037231445312	176.323974609375	147.529281616211
4536	22.675	855.332641601562	382.675872802734	204.468826293945	631.596740722656	174.988845825195	152.181671142578
4537	22.68	868.2998046875	381.718597412109	196.89323425293	624.4658203125	173.582885742188	156.930740356445
4538	22.685	881.638977050781	380.793701171875	189.287582397461	617.588989257812	172.195877075195	161.811874389648
4539	22.69	895.212524414062	379.797637939453	181.885543823242	611.005981445312	170.875717163086	166.728866577148
4540	22.695	908.921020507812	378.970306396484	174.725250244141	604.707641601562	169.538818359375	171.658142089844
4541	22.7	922.674438476562	378.18310546875	167.796493530273	598.735412597656	168.363159179688	176.636413574219
4542	22.705	936.523498535156	377.455383300781	161.071624755859	592.995056152344	167.252426147461	181.714111328125
4543	22.71	950.240600585938	376.764099121094	154.728851318359	587.567993164062	166.364166259766	186.835372924805
4544	22.715	963.734680175781	376.161560058594	148.751541137695	582.344970703125	165.711456298828	191.875213623047
4545	22.72	976.887451171875	375.486633300781	143.350936889648	577.218505859375	165.108367919922	196.965316772461
4546	22.725	989.60302734375	374.817810058594	138.474716186523	572.1494140625	164.571029663086	202.075653076172
4547	22.73	1001.63708496094	374.108673095703	134.136260986328	566.940673828125	164.209075927734	207.102630615234
4548	22.735	1012.89477539062	373.36962890625	130.346374511719	561.497314453125	163.839172363281	212.191177368164
4549	22.74	1023.13714599609	372.581176757812	127.024925231934	555.8515625	163.763565063477	217.209411621094
4550	22.745	1032.32873535156	371.782806396484	124.154403686523	549.709411621094	163.721221923828	222.539016723633
4551	22.75	1040.45227050781	370.918792724609	121.77409362793	543.47265625	163.803115844727	228.03450012207
4552	22.755	1047.53930664062	370.056488037109	119.73755645752	537.382263183594	164.181503295898	233.597366333008
4553	22.76	1053.68969726562	369.188934326172	117.869552612305	531.583801269531	164.432418823242	239.358108520508
4554	22.765	1058.79553222656	368.17919921875	116.138160705566	526.349304199219	164.827163696289	245.133666992188
4555	22.77	1062.97338867188	367.133483886719	114.332321166992	521.695922851562	165.173477172852	250.976318359375
4556	22.775	1066.18371582031	366.189025878906	112.517860412598	517.609069824219	165.491165161133	256.847564697266
4557	22.78	1068.38659667969	365.240173339844	110.507881164551	514.068359375	165.809295654297	262.761535644531
4558	22.785	1069.66027832031	364.346801757812	108.358291625977	511.089874267578	165.8701171875	268.587158203125
4559	22.79	1070.07934570312	363.619995117188	106.055221557617	508.736480712891	165.85661315918	274.322509765625
4560	22.795	1069.65747070312	363.016906738281	103.526336669922	506.937744140625	165.765838623047	279.930389404297
4561	22.8	1068.29040527344	362.446594238281	100.771125793457	505.773864746094	165.461410522461	285.380889892578
4562	22.805	1066.11071777344	362.029815673828	97.6591262817383	505.129211425781	165.12565612793	290.717864990234
4563	22.81	1062.998046875	361.449737548828	94.6363067626953	505.146759033203	164.611145019531	295.908142089844
4564	22.815	1058.54675292969	360.510711669922	92.1969604492188	505.785461425781	164.116104125977	300.932159423828
4565	22.82	1051.82873535156	358.315246582031	89.8854370117188	507.102508544922	163.654983520508	305.735809326172
4566	22.825	1041.04772949219	355.13623046875	88.1064758300781	509.185974121094	163.40007019043	310.206146240234
4567	22.83	1027.48522949219	351.66455078125	86.8338012695312	511.930358886719	163.019882202148	314.600402832031
4568	22.835	1014.61499023438	348.9287109375	86.2996978759766	515.516174316406	162.63525390625	318.754119873047
4569	22.84	1003.63256835938	347.135009765625	86.6260299682617	519.83642578125	162.405532836914	322.693756103516
4570	22.845	993.689758300781	346.252349853516	87.5982513427734	524.912475585938	162.169097900391	326.402526855469
4571	22.85	983.390930175781	345.947387695312	88.4506759643555	530.732971191406	162.062469482422	329.797485351562
4572	22.855	972.057434082031	345.880889892578	89.5723342895508	537.282592773438	161.987884521484	332.894012451172
4573	22.86	960.211120605469	345.928680419922	90.6857528686523	544.4873046875	162.109390258789	335.588684082031
4574	22.865	948.648803710938	346.271545410156	91.4549865722656	552.223693847656	162.366760253906	337.83935546875
4575	22.87	937.497802734375	347.069183349609	92.2314300537109	560.273315429688	162.878860473633	339.598999023438
4576	22.875	926.171813964844	348.002258300781	93.2773666381836	569.369812011719	162.798370361328	340.832183837891
4577	22.88	914.788940429688	348.969116210938	94.1695251464844	578.350646972656	163.112564086914	341.497100830078
4578	22.885	903.288330078125	349.941955566406	94.6879501342773	587.409851074219	163.662902832031	341.69140625
4579	22.89	891.734130859375	350.646209716797	95.3358459472656	596.796569824219	163.835327148438	341.348846435547
4580	22.895	879.975646972656	351.271270751953	96.0033187866211	606.597106933594	163.977340698242	340.483703613281
4581	22.9	868.236083984375	351.670104980469	96.7597198486328	616.361328125	164.414581298828	339.038940429688
4582	22.905	856.453308105469	351.886871337891	97.5466690063477	626.133239746094	164.638595581055	337.173828125
4583	22.91	844.642578125	352.052429199219	98.5417556762695	635.985717773438	165.036102294922	334.847106933594
4584	22.915	832.829956054688	351.992828369141	99.6440811157227	646.030090332031	165.630096435547	332.017517089844
4585	22.92	821.034912109375	352.026275634766	100.997673034668	656.041442871094	166.197998046875	328.799865722656
4586	22.925	809.339660644531	351.876342773438	102.441390991211	666.051513671875	166.919052124023	325.109497070312
4587	22.93	797.74560546875	351.887725830078	104.127578735352	676.150695800781	167.766754150391	321.007690429688
4588	22.935	786.313232421875	351.950592041016	106.032447814941	686.250183105469	168.606750488281	316.564788818359
4589	22.94	775.115966796875	352.090759277344	108.174621582031	696.445617675781	169.655776977539	311.624877929688
4590	22.945	764.080444335938	352.412963867188	110.595634460449	706.671325683594	170.738891601562	306.446472167969
4591	22.95	753.368957519531	352.781188964844	113.268165588379	717.015014648438	171.930755615234	300.818511962891
4592	22.955	742.864135742188	353.369079589844	116.274909973145	727.506774902344	173.203735351562	294.940704345703
4593	22.96	732.698364257812	354.167755126953	119.481620788574	738.176025390625	174.61328125	288.69091796875
4594	22.965	722.85009765625	355.133117675781	122.929969787598	749.063537597656	176.072616577148	282.139099121094
4595	22.97	713.326904296875	356.216156005859	126.520530700684	760.125549316406	177.568389892578	275.340270996094
4596	22.975	704.165710449219	357.470245361328	130.327529907227	771.40869140625	179.022521972656	268.301605224609
4597	22.98	695.282531738281	358.703155517578	134.220947265625	782.968566894531	180.588668823242	261.011779785156
